<?xml version="1.0" encoding="UTF-8"?>
<svg xmlns="http://www.w3.org/2000/svg" onmouseup="{ if(window.parent.document.onmouseup) window.parent.document.onmouseup(arguments[0]);}" viewBox="0 0 38.46 38.46"><title/><g data-name="Layer 2" id="Layer_2"><g data-name="Layer 2" id="Layer_2-2"><path data-cppathid="10000" fill="#fff" d="M19.23,0A19.23,19.23,0,1,0,38.46,19.23,19.26,19.26,0,0,0,19.23,0ZM28,9.6a13,13,0,0,0-8.12-3.37v-5A17.91,17.91,0,0,1,31.48,6.1ZM19.23,7.44A11.79,11.79,0,1,1,7.44,19.23,11.8,11.8,0,0,1,19.23,7.44ZM10.48,28.85a12.93,12.93,0,0,0,8.13,3.37v5A18,18,0,0,1,7,32.36Zm9.37,3.37A12.92,12.92,0,0,0,28,28.85l3.51,3.51a17.91,17.91,0,0,1-11.63,4.83Zm9-4.25a12.95,12.95,0,0,0,0-17.49L32.36,7a17.88,17.88,0,0,1,0,24.51ZM18.61,1.27v5A13,13,0,0,0,9.6,28L6.09,31.48A17.95,17.95,0,0,1,18.61,1.27Z"/></g></g></svg>