<?xml version="1.0" encoding="UTF-8"?>
<svg xmlns="http://www.w3.org/2000/svg" onmouseup="{ if(window.parent.document.onmouseup) window.parent.document.onmouseup(arguments[0]);}" viewBox="0 0 57.39 57.39"><defs><style>.cls-1{fill:#fff;}</style></defs><title/><g data-name="Layer 2" id="Layer_2"><g data-name="Layer 2" id="Layer_2-2"><path data-cppathid="10000" d="M28.69,0a28.7,28.7,0,1,0,28.7,28.7A28.72,28.72,0,0,0,28.69,0Zm0,55.54A26.85,26.85,0,1,1,55.54,28.7,26.88,26.88,0,0,1,28.69,55.54Z" class="cls-1"/><path data-cppathid="10001" d="M43.32,12.87,21.81,21.29a.92.92,0,0,0-.52.52L12.87,43.32a.92.92,0,0,0,.86,1.26,1,1,0,0,0,.34-.06L35.58,36.1a.89.89,0,0,0,.52-.52l8.42-21.51a.91.91,0,0,0-.21-1A.93.93,0,0,0,43.32,12.87ZM34.53,34.53,15.36,42l7.5-19.17L42,15.37Z" class="cls-1"/><rect data-cppathid="10002" height="4.63" width="1.85" y="5.8" x="27.77" class="cls-1"/><rect data-cppathid="10003" height="4.62" width="1.85" y="46.97" x="27.77" class="cls-1"/><rect data-cppathid="10004" height="1.85" width="4.63" y="27.77" x="5.8" class="cls-1"/><rect data-cppathid="10005" height="1.85" width="4.63" y="27.77" x="46.96" class="cls-1"/><path data-cppathid="10006" d="M28.69,30.55a1.85,1.85,0,1,0-1.85-1.85A1.85,1.85,0,0,0,28.69,30.55Z" class="cls-1"/></g></g></svg>